<svg xmlns="http://www.w3.org/2000/svg" viewBox="0 0 880 366" width="100%" height="100%">
  <defs>
    <style type="text/css">
      @import url('https://fonts.googleapis.com/css2?family=Inter:wght@500;600;700&amp;family=JetBrains+Mono:wght@400;500&amp;display=swap');
      .card-bg { fill: #09090b; stroke: #27272a; stroke-width: 1; rx: 8px; }
      .card-header { font-family: 'Inter', -apple-system, BlinkMacSystemFont, sans-serif; font-size: 13px; font-weight: 600; fill: #f4f4f5; letter-spacing: 0.04em; text-transform: uppercase; }
      .card-subline { font-family: 'JetBrains Mono', monospace; font-size: 10px; fill: #71717a; }
      .pill-bg { fill: #141416; stroke: #27272a; stroke-width: 1; rx: 4px; }
      .pill-text { font-family: 'JetBrains Mono', monospace, ui-monospace; font-size: 11px; font-weight: 500; fill: #d4d4d8; }
    </style>
  </defs>
  <rect width="100%" height="100%" fill="none" />

  <g transform="translate(0, 0)">
    <rect width="282.6666666666667" height="175" class="card-bg" />
    <!-- Fine technical corner accent -->
    <line x1="0" y1="0" x2="30" y2="0" stroke="#52525b" stroke-width="1.5" />
    <circle cx="20" cy="24" r="3" fill="#d4d4d8" />
    <text x="32" y="28" class="card-header">Languages</text>
    <line x1="20" y1="42" x2="262.6666666666667" y2="42" stroke="#1f1f23" stroke-width="1" />
    <g transform="translate(18, 56)">
      <g transform="translate(0, 0)">
        <rect width="84" height="24" class="pill-bg" />
        <text x="42" y="16" text-anchor="middle" class="pill-text">TypeScript</text>
      </g>
      <g transform="translate(90, 0)">
        <rect width="57" height="24" class="pill-bg" />
        <text x="28.5" y="16" text-anchor="middle" class="pill-text">Python</text>
      </g>
      <g transform="translate(153, 0)">
        <rect width="84" height="24" class="pill-bg" />
        <text x="42" y="16" text-anchor="middle" class="pill-text">JavaScript</text>
      </g>
      <g transform="translate(0, 32)">
        <rect width="44" height="24" class="pill-bg" />
        <text x="22" y="16" text-anchor="middle" class="pill-text">Dart</text>
      </g>
      <g transform="translate(50, 32)">
        <rect width="37" height="24" class="pill-bg" />
        <text x="18.5" y="16" text-anchor="middle" class="pill-text">C++</text>
      </g>
      <g transform="translate(93, 32)">
        <rect width="37" height="24" class="pill-bg" />
        <text x="18.5" y="16" text-anchor="middle" class="pill-text">SQL</text>
      </g>
      <g transform="translate(136, 32)">
        <rect width="71" height="24" class="pill-bg" />
        <text x="35.5" y="16" text-anchor="middle" class="pill-text">HTML/CSS</text>
      </g>
    </g>
  </g>
  <g transform="translate(298.6666666666667, 0)">
    <rect width="282.6666666666667" height="175" class="card-bg" />
    <!-- Fine technical corner accent -->
    <line x1="0" y1="0" x2="30" y2="0" stroke="#52525b" stroke-width="1.5" />
    <circle cx="20" cy="24" r="3" fill="#d4d4d8" />
    <text x="32" y="28" class="card-header">Frontend</text>
    <line x1="20" y1="42" x2="262.6666666666667" y2="42" stroke="#1f1f23" stroke-width="1" />
    <g transform="translate(18, 56)">
      <g transform="translate(0, 0)">
        <rect width="64" height="24" class="pill-bg" />
        <text x="32" y="16" text-anchor="middle" class="pill-text">Next.js</text>
      </g>
      <g transform="translate(70, 0)">
        <rect width="50" height="24" class="pill-bg" />
        <text x="25" y="16" text-anchor="middle" class="pill-text">React</text>
      </g>
      <g transform="translate(126, 0)">
        <rect width="98" height="24" class="pill-bg" />
        <text x="49" y="16" text-anchor="middle" class="pill-text">Tailwind CSS</text>
      </g>
      <g transform="translate(0, 32)">
        <rect width="50" height="24" class="pill-bg" />
        <text x="25" y="16" text-anchor="middle" class="pill-text">Astro</text>
      </g>
      <g transform="translate(56, 32)">
        <rect width="64" height="24" class="pill-bg" />
        <text x="32" y="16" text-anchor="middle" class="pill-text">Flutter</text>
      </g>
    </g>
  </g>
  <g transform="translate(597.3333333333334, 0)">
    <rect width="282.6666666666667" height="175" class="card-bg" />
    <!-- Fine technical corner accent -->
    <line x1="0" y1="0" x2="30" y2="0" stroke="#52525b" stroke-width="1.5" />
    <circle cx="20" cy="24" r="3" fill="#d4d4d8" />
    <text x="32" y="28" class="card-header">Backend</text>
    <line x1="20" y1="42" x2="262.6666666666667" y2="42" stroke="#1f1f23" stroke-width="1" />
    <g transform="translate(18, 56)">
      <g transform="translate(0, 0)">
        <rect width="64" height="24" class="pill-bg" />
        <text x="32" y="16" text-anchor="middle" class="pill-text">FastAPI</text>
      </g>
      <g transform="translate(70, 0)">
        <rect width="64" height="24" class="pill-bg" />
        <text x="32" y="16" text-anchor="middle" class="pill-text">Node.js</text>
      </g>
      <g transform="translate(140, 0)">
        <rect width="64" height="24" class="pill-bg" />
        <text x="32" y="16" text-anchor="middle" class="pill-text">Express</text>
      </g>
      <g transform="translate(0, 32)">
        <rect width="78" height="24" class="pill-bg" />
        <text x="39" y="16" text-anchor="middle" class="pill-text">REST APIs</text>
      </g>
    </g>
  </g>
  <g transform="translate(0, 191)">
    <rect width="282.6666666666667" height="175" class="card-bg" />
    <!-- Fine technical corner accent -->
    <line x1="0" y1="0" x2="30" y2="0" stroke="#52525b" stroke-width="1.5" />
    <circle cx="20" cy="24" r="3" fill="#d4d4d8" />
    <text x="32" y="28" class="card-header">AI & Optimization</text>
    <line x1="20" y1="42" x2="262.6666666666667" y2="42" stroke="#1f1f23" stroke-width="1" />
    <g transform="translate(18, 56)">
      <g transform="translate(0, 0)">
        <rect width="173" height="24" class="pill-bg" />
        <text x="86.5" y="16" text-anchor="middle" class="pill-text">Ant Colony Optimization</text>
      </g>
      <g transform="translate(0, 32)">
        <rect width="173" height="24" class="pill-bg" />
        <text x="86.5" y="16" text-anchor="middle" class="pill-text">Bio-Inspired Algorithms</text>
      </g>
      <g transform="translate(179, 32)">
        <rect width="64" height="24" class="pill-bg" />
        <text x="32" y="16" text-anchor="middle" class="pill-text">LiteLLM</text>
      </g>
    </g>
  </g>
  <g transform="translate(298.6666666666667, 191)">
    <rect width="282.6666666666667" height="175" class="card-bg" />
    <!-- Fine technical corner accent -->
    <line x1="0" y1="0" x2="30" y2="0" stroke="#52525b" stroke-width="1.5" />
    <circle cx="20" cy="24" r="3" fill="#d4d4d8" />
    <text x="32" y="28" class="card-header">Databases</text>
    <line x1="20" y1="42" x2="262.6666666666667" y2="42" stroke="#1f1f23" stroke-width="1" />
    <g transform="translate(18, 56)">
      <g transform="translate(0, 0)">
        <rect width="84" height="24" class="pill-bg" />
        <text x="42" y="16" text-anchor="middle" class="pill-text">PostgreSQL</text>
      </g>
      <g transform="translate(90, 0)">
        <rect width="71" height="24" class="pill-bg" />
        <text x="35.5" y="16" text-anchor="middle" class="pill-text">Firebase</text>
      </g>
    </g>
  </g>
  <g transform="translate(597.3333333333334, 191)">
    <rect width="282.6666666666667" height="175" class="card-bg" />
    <!-- Fine technical corner accent -->
    <line x1="0" y1="0" x2="30" y2="0" stroke="#52525b" stroke-width="1.5" />
    <circle cx="20" cy="24" r="3" fill="#d4d4d8" />
    <text x="32" y="28" class="card-header">Developer Tools</text>
    <line x1="20" y1="42" x2="262.6666666666667" y2="42" stroke="#1f1f23" stroke-width="1" />
    <g transform="translate(18, 56)">
      <g transform="translate(0, 0)">
        <rect width="37" height="24" class="pill-bg" />
        <text x="18.5" y="16" text-anchor="middle" class="pill-text">Git</text>
      </g>
      <g transform="translate(43, 0)">
        <rect width="112" height="24" class="pill-bg" />
        <text x="56" y="16" text-anchor="middle" class="pill-text">GitHub Actions</text>
      </g>
      <g transform="translate(161, 0)">
        <rect width="57" height="24" class="pill-bg" />
        <text x="28.5" y="16" text-anchor="middle" class="pill-text">Docker</text>
      </g>
      <g transform="translate(0, 32)">
        <rect width="50" height="24" class="pill-bg" />
        <text x="25" y="16" text-anchor="middle" class="pill-text">Linux</text>
      </g>
      <g transform="translate(56, 32)">
        <rect width="64" height="24" class="pill-bg" />
        <text x="32" y="16" text-anchor="middle" class="pill-text">VS Code</text>
      </g>
    </g>
  </g>
</svg>